inDegrees=no
num_controls=7
num_derivatives=13
num_iterations=183
num_multipliers=7
num_parameters=0
num_slacks=7
num_states=26
objective=6.253478
objective_accelerations=0.716671
objective_balance=0.069716
objective_effort=0.570604
objective_height=4.849359
objective_ligament=0.047128
solver_duration=1947.640327
status=Solve_Succeeded
success=true
DataType=double
version=3
OpenSimVersion=4.4-2022-07-23-0e9fedc
endheader
time	/jointset/ground_pelvis/pelvis_tilt/value	/jointset/ground_pelvis/pelvis_tx/value	/jointset/ground_pelvis/pelvis_ty/value	/jointset/hip_l/hip_flexion_l/value	/jointset/hip_l/hip_adduction_l/value	/jointset/hip_l/hip_rotation_l/value	/jointset/back/lumbar_extension/value	/jointset/patellofemoral_l/patellar_flexion_l/value	/jointset/knee_l/knee_flexion_l/value	/jointset/knee_l/knee_adduction_l/value	/jointset/knee_l/knee_rotation_l/value	/jointset/ankle_l/ankle_angle_l/value	/jointset/subtalar_l/subtalar_angle_l/value	/jointset/ground_pelvis/pelvis_tilt/speed	/jointset/ground_pelvis/pelvis_tx/speed	/jointset/ground_pelvis/pelvis_ty/speed	/jointset/hip_l/hip_flexion_l/speed	/jointset/hip_l/hip_adduction_l/speed	/jointset/hip_l/hip_rotation_l/speed	/jointset/back/lumbar_extension/speed	/jointset/patellofemoral_l/patellar_flexion_l/speed	/jointset/knee_l/knee_flexion_l/speed	/jointset/knee_l/knee_adduction_l/speed	/jointset/knee_l/knee_rotation_l/speed	/jointset/ankle_l/ankle_angle_l/speed	/jointset/subtalar_l/subtalar_angle_l/speed	/forceset/tau_hip_flexion_l	/forceset/tau_hip_adduction_l	/forceset/tau_hip_rotation_l	/forceset/tau_knee_flexion_l	/forceset/tau_ankle_angle_l	/forceset/tau_subtalar_angle_l	/forceset/tau_lumbar_extension	lambda_cid13_p0	lambda_cid13_p1	lambda_cid13_p2	lambda_cid13_p3	lambda_cid13_p4	lambda_cid13_p5	lambda_cid14_p0	/jointset/ground_pelvis/pelvis_tilt/accel	/jointset/ground_pelvis/pelvis_tx/accel	/jointset/ground_pelvis/pelvis_ty/accel	/jointset/hip_l/hip_flexion_l/accel	/jointset/hip_l/hip_adduction_l/accel	/jointset/hip_l/hip_rotation_l/accel	/jointset/back/lumbar_extension/accel	/jointset/patellofemoral_l/patellar_flexion_l/accel	/jointset/knee_l/knee_flexion_l/accel	/jointset/knee_l/knee_adduction_l/accel	/jointset/knee_l/knee_rotation_l/accel	/jointset/ankle_l/ankle_angle_l/accel	/jointset/subtalar_l/subtalar_angle_l/accel	gamma_cid13_p0	gamma_cid13_p1	gamma_cid13_p2	gamma_cid13_p3	gamma_cid13_p4	gamma_cid13_p5	gamma_cid14_p0
0	-0.03681365460270061	0.05667363531355202	0.9203417505589832	0.3085811930696054	-0.2956379249374108	-0.3015505137641955	-0.3879500408040475	0.2499276582270951	0.249927658227084	-0.1745329251994329	-0.1744772961338537	-0.0008036543073733089	0.0004395199450779503	0	0	0	0	0	0	0	0	0	0	0	0	0	0.09633952709760585	-0.06004810251400373	-0.02302348507239875	-0.2679274616043976	0.2155201219315987	-0.01901535617750623	-0.01878215640041699	26.03294166615599	1.349303139112631	2.015854678518755	8.416726836355743	-612.6446379661271	-74.75592366701271	-23.19506571047538	-1.696547389855114	-2.298965676332634	-1.084775327202511	11.16522482174311	-0.7914622974183197	3.684502801383485	-7.744179439720975	10.59813979469397	10.59813979469551	1.764361102130583	-0.08416229288214772	1.804988466788907	-0.2414355163713503	1.588055502148324e-09	2.113523932341968e-07	8.218687148628591e-08	-8.907374004327715e-09	1.464576564396122e-07	4.060158972968273e-10	8.343644001733758e-09
0.01	-0.03689370888626961	0.05656040920828048	0.9202887057282424	0.3091257987327528	-0.2956775806064974	-0.3013653051423136	-0.3883357996910439	0.2504472230226656	0.2504472230226269	-0.1744486086875861	-0.1744774137732373	-0.000715440747922395	0.0004266459380612614	-0.01592188207390503	-0.02249292505245739	-0.01056661493937542	0.1083479889011607	-0.007874324183762247	0.03685404417381161	-0.07658582755765443	0.1034316297639589	0.1034316297639586	0.01680814351708077	-2.223361056413951e-05	0.01762525339440899	-0.002520250714088693	0.08921984460989257	-0.06715266203410838	-0.02206246664929303	-0.261849208890645	0.2063469014116215	-0.007630443421601111	-0.01216749794493726	23.39079280098823	-3.091241409038154	2.676622121109602	8.206372868711874	-615.7225850923862	-83.43887663306327	-23.2009844205948	-1.526672742685048	-2.201613301672459	-1.036222604467982	10.58360668661173	-0.7769434911456879	3.657701600799478	-7.530891937019315	10.14347349622485	10.14347349622374	1.630632996695134	0.03894703021730291	1.738680783588058	-0.2491804991306434	-3.240530409016543e-08	2.129627481446898e-07	1.736793740472956e-07	2.695795919815411e-08	-2.343787394441174e-09	-6.078100001937206e-08	-4.187836988750782e-11
0.02	-0.03713031481589821	0.05622682237608923	0.9201312711426752	0.3107366884373853	-0.2957942847198892	-0.3008171868036256	-0.3894704383582654	0.2519866639016664	0.2519866639016651	-0.1741978863646979	-0.1744777135636717	-0.0004514972529652707	0.0003901972938630858	-0.03131032920886727	-0.04407214538394519	-0.02087795096527684	0.2132568082946532	-0.01540968885917705	0.07258194336440546	-0.1497759560445306	0.2039752166870417	0.2039752166870336	0.03327996784211057	-3.643020669447819e-05	0.03514598710166403	-0.00471492743629347	0.08210016212244151	-0.07425722155410867	-0.02110144822611326	-0.2557709561767111	0.1971736808917479	0.003754469334446556	-0.0055528394893581	20.83180450013254	-7.54419441874856	3.336909452713996	7.879910390446461	-617.5495390804185	-92.01720883039151	-23.21835417419098	-1.589860402066238	-2.116224732138994	-1.033719544507715	10.47739092020949	-0.723670395748811	3.459273804739916	-7.065039625565133	10.02053122651882	10.02053122651884	1.697097263720441	-0.0825548899954212	1.784084529357816	-0.176320717994654	-6.639866368247917e-08	2.145731030551828e-07	2.651718766083052e-07	6.282329240063594e-08	-1.511452312284946e-07	-1.219680159360409e-07	-8.427400741508774e-09
0.03	-0.03751840518109877	0.05568190717544956	0.9198716737182047	0.3133801133684843	-0.2959845409652182	-0.2999181605135862	-0.3913201714684671	0.2545173464487852	0.2545173464487974	-0.1737841544947829	-0.1744787579046534	-1.307432896578065e-05	0.0003334679476522853	-0.046216544047164	-0.06476903090691237	-0.03102641144356065	0.3148804415382492	-0.0225825098213264	0.1070376332192178	-0.219654876988812	0.301689875477315	0.3016898754773126	0.04938233448502324	-0.0001624935042237309	0.0525005369160038	-0.006582148845530905	0.07467907728978661	-0.0671383125217271	-0.02020131166267734	-0.2496645690314889	0.1921836546436638	0.001477645363501453	0.0009822789338515749	19.10926958654954	-6.334895860019282	3.236783446924558	7.890707621138182	-618.9578837782074	-88.48492951547033	-23.24637976610815	-1.427329314680409	-2.025128177986316	-1.003171756967671	9.922677929628307	-0.705299558994411	3.410833852999387	-6.871949977319876	9.576222335845143	9.576222335845978	1.554258891217898	0.02389858910509614	1.705434176488037	-0.1846683683853826	-9.160471712964223e-08	1.837176883929232e-07	3.4073896127322e-07	8.539325876294468e-08	-2.628903790488686e-07	-1.777012251672884e-07	-1.868193718589039e-08
0.04	-0.03805282315268487	0.05493428157645735	0.9195110391974552	0.3170233403126425	-0.2962447677426732	-0.2986801538695598	-0.3938532201178057	0.2580110334099211	0.2580110334099221	-0.1732119084530838	-0.1744807567508487	0.0005977528869804577	0.0002595172841496878	-0.06057585048415377	-0.08461422505445394	-0.04108537022101202	0.4132172109096021	-0.02940379528531386	0.1403780141599286	-0.2864390638714608	0.3965760994901291	0.3965760994901317	0.06498280219357587	-0.0002273312522824706	0.06962684549097821	-0.008159190894656276	0.06725799245700843	-0.0600194034894058	-0.01930117509927962	-0.2435581818863565	0.1871936283955278	-0.0007991786075231739	0.007517397357023616	17.46315556176308	-5.134909869636064	3.133495504898875	7.786178062806756	-619.2289795060645	-84.85157416104177	-23.2840308743924	-1.480478721804534	-1.945886457054139	-1.015819204341229	9.820018145760898	-0.6533632961164139	3.236212021919604	-6.44609281323841	9.454844271027028	9.454844271026937	1.596717476848488	-0.07030978010134575	1.738436281484456	-0.1182848459723203	-1.166295890068022e-07	1.521928764198852e-07	4.159776868062566e-07	1.076890938501983e-07	-3.738714795287544e-07	-2.333219847761561e-07	-2.897501000290624e-08
0.05	-0.03872853271195533	0.05399259462696585	0.9190500104772318	0.321634081301901	-0.2965713012165862	-0.2971150054944813	-0.3970382701517687	0.262439778694644	0.2624397786946466	-0.1724859966747271	-0.1744837128350146	0.001378879843401185	0.0001714629877113677	-0.07448046468079041	-0.1035670770772794	-0.05112335368306929	0.5083790868419669	-0.03583427225151586	0.1724562301429399	-0.3500604319468602	0.488699933850631	0.4886999338506281	0.08010868176386629	-0.0003507861488987909	0.08657019684007518	-0.009390111871733399	0.05999203544007786	-0.05846445187322067	-0.01841563577029401	-0.2387915682450388	0.1822111030962677	0.001735965839405221	0.01392396595127761	16.00120243526587	-5.996489444579661	3.289751643413922	7.300938071795785	-619.563920207587	-85.59722792748049	-23.32999832967997	-1.332617630712394	-1.846549692627187	-0.9983105671709043	9.281474361461962	-0.627673130706943	3.164254397412826	-6.243582158074285	9.020205356224457	9.020205356223622	1.45695915471409	0.01866939427410794	1.668032461228224	-0.1163338399599796	-1.331885248434984e-07	8.657876929218209e-08	4.6035953228635e-07	1.198675927673121e-07	-4.541878047259329e-07	-2.754221645467208e-07	-3.962361787027172e-08
0.06	-0.03954072138562732	0.05286606613369918	0.918488497392381	0.3271798814593717	-0.2969600961069284	-0.2952349493573872	-0.4008442185371655	0.2677755727905091	0.267775572790511	-0.1716115389091462	-0.1744874969203921	0.002328589893233738	7.293185822534024e-05	-0.08787167336214703	-0.1215825338094833	-0.06118224314647096	0.6002290445538325	-0.04185607857111363	0.2033595665627899	-0.4106187341575632	0.5779858617176403	0.5779858617176301	0.09469199963794965	-0.0003929314968801576	0.1033434641734054	-0.01025455750419361	0.05272607842313996	-0.05690950025702838	-0.01753009644136527	-0.2340249546037151	0.1772285777970121	0.004271110286343465	0.0203305345455227	14.60666765390486	-6.867783638680034	3.44516974085046	6.70462735998647	-618.8961754037105	-86.25507851145947	-23.38278691336743	-1.377797618748226	-1.758407398930061	-1.02000040461011	9.157634501661109	-0.571629166795548	3.001236109287351	-5.833479640298962	8.887262972328561	8.887262972328081	1.488205137607128	-0.0540478703743676	1.704419478330834	-0.04498977704901267	-1.49391000215333e-07	1.952932342112469e-08	5.034421407115825e-07	1.316200985825253e-07	-5.332129814901553e-07	-3.169530567451463e-07	-5.028719563449401e-08
0.07000000000000001	-0.04048465744312239	0.05156401656303708	0.9178260641775184	0.3336284950395607	-0.2974069769563265	-0.2930524258128301	-0.4052402529084866	0.2739905722989459	0.273990572298957	-0.1705937551601666	-0.1744920369457651	0.003445209808026002	-3.23061012323665e-05	-0.1008296592175134	-0.1386748627905467	-0.07132254858806268	0.6889546936985089	-0.04744872861152947	0.2329455673553849	-0.4681033004433897	0.6645447327771099	0.6645447327771048	0.1087627139701618	-0.0005011503785150443	0.119941001342056	-0.01073276538476372	0.04519252413803738	-0.05365881318523744	-0.0166305707567578	-0.2295105878478871	0.1727354112483116	0.005217981658782169	0.02681484368267586	13.29535855280461	-7.074558028192272	3.506861056862439	6.276073929437363	-618.3380746401349	-85.47042174763939	-23.44069429477555	-1.241917544983559	-1.661741552028149	-1.013875528724085	8.649171376718128	-0.5424448740997332	2.907268042615879	-5.633219172795094	8.469813280507895	8.469813280509008	1.351250392126503	0.01296743432623617	1.631489388096468	-0.04025594761011591	-1.59812149765252e-07	-6.516405741771981e-08	5.315659902877214e-07	1.346750745760399e-07	-5.825932692812796e-07	-3.510627061685887e-07	-6.162321102728377e-08
